<mxfile host="app.diagrams.net" modified="2023-10-23T13:10:26.671Z" agent="Mozilla/5.0 (Windows NT 10.0; Win64; x64; rv:109.0) Gecko/20100101 Firefox/118.0" etag="ggFIBjE4aomnJlbamJmM" version="22.0.6" type="device">
  <diagram id="C5RBs43oDa-KdzZeNtuy" name="Page-1">
    <mxGraphModel dx="1050" dy="530" grid="1" gridSize="10" guides="1" tooltips="1" connect="1" arrows="1" fold="1" page="1" pageScale="1" pageWidth="827" pageHeight="1169" math="0" shadow="0">
      <root>
        <mxCell id="WIyWlLk6GJQsqaUBKTNV-0" />
        <mxCell id="WIyWlLk6GJQsqaUBKTNV-1" parent="WIyWlLk6GJQsqaUBKTNV-0" />
        <mxCell id="SLpWsWOZ-Yg8wPwdnWfF-1" value="Application" style="swimlane;whiteSpace=wrap;html=1;" parent="WIyWlLk6GJQsqaUBKTNV-1" vertex="1">
          <mxGeometry x="280" y="110" width="450" height="670" as="geometry" />
        </mxCell>
        <mxCell id="YS-Tequ_tSHetrGVFUUf-0" value="Créer concert" style="ellipse;whiteSpace=wrap;html=1;" parent="SLpWsWOZ-Yg8wPwdnWfF-1" vertex="1">
          <mxGeometry x="30" y="300" width="80" height="60" as="geometry" />
        </mxCell>
        <mxCell id="YS-Tequ_tSHetrGVFUUf-3" value="Editer fiches" style="ellipse;whiteSpace=wrap;html=1;" parent="SLpWsWOZ-Yg8wPwdnWfF-1" vertex="1">
          <mxGeometry x="64" y="140" width="106" height="50" as="geometry" />
        </mxCell>
        <mxCell id="wr5d51Yl4XAAvzai9b7U-3" value="Trouver une salle" style="ellipse;whiteSpace=wrap;html=1;" parent="SLpWsWOZ-Yg8wPwdnWfF-1" vertex="1">
          <mxGeometry x="320" y="280" width="100" height="60" as="geometry" />
        </mxCell>
        <mxCell id="wr5d51Yl4XAAvzai9b7U-4" value="Recueillir les besoins du concert" style="ellipse;whiteSpace=wrap;html=1;" parent="SLpWsWOZ-Yg8wPwdnWfF-1" vertex="1">
          <mxGeometry x="144" y="300" width="100" height="60" as="geometry" />
        </mxCell>
        <mxCell id="YS-Tequ_tSHetrGVFUUf-19" value="Faire l&#39;inventaire des besoins" style="ellipse;whiteSpace=wrap;html=1;" parent="SLpWsWOZ-Yg8wPwdnWfF-1" vertex="1">
          <mxGeometry x="50" y="520" width="100" height="70" as="geometry" />
        </mxCell>
        <mxCell id="wr5d51Yl4XAAvzai9b7U-6" value="Se connecter" style="ellipse;whiteSpace=wrap;html=1;" parent="SLpWsWOZ-Yg8wPwdnWfF-1" vertex="1">
          <mxGeometry x="54" y="410" width="100" height="60" as="geometry" />
        </mxCell>
        <mxCell id="eJs-L2XnjaH23RuSow4--18" value="Editer le plan de scène" style="ellipse;whiteSpace=wrap;html=1;" parent="SLpWsWOZ-Yg8wPwdnWfF-1" vertex="1">
          <mxGeometry x="170" y="220" width="106" height="50" as="geometry" />
        </mxCell>
        <mxCell id="bsUH4eUVU3nkwlBXj7Sr-1" value="Envoyer informations" style="ellipse;whiteSpace=wrap;html=1;" parent="SLpWsWOZ-Yg8wPwdnWfF-1" vertex="1">
          <mxGeometry x="320" y="140" width="110" height="50" as="geometry" />
        </mxCell>
        <mxCell id="eJs-L2XnjaH23RuSow4--20" value="Editer une liste de matériel à louer" style="ellipse;whiteSpace=wrap;html=1;" parent="SLpWsWOZ-Yg8wPwdnWfF-1" vertex="1">
          <mxGeometry x="180" y="590" width="100" height="60" as="geometry" />
        </mxCell>
        <mxCell id="eJs-L2XnjaH23RuSow4--31" value="" style="endArrow=none;html=1;rounded=0;exitX=1;exitY=0.5;exitDx=0;exitDy=0;entryX=0;entryY=0.5;entryDx=0;entryDy=0;" parent="SLpWsWOZ-Yg8wPwdnWfF-1" source="YS-Tequ_tSHetrGVFUUf-3" target="bsUH4eUVU3nkwlBXj7Sr-1" edge="1">
          <mxGeometry width="50" height="50" relative="1" as="geometry">
            <mxPoint x="130" y="340" as="sourcePoint" />
            <mxPoint x="180" y="290" as="targetPoint" />
          </mxGeometry>
        </mxCell>
        <mxCell id="eJs-L2XnjaH23RuSow4--38" value="" style="endArrow=open;dashed=1;html=1;rounded=0;exitX=1;exitY=0.5;exitDx=0;exitDy=0;entryX=0;entryY=0.5;entryDx=0;entryDy=0;endFill=0;" parent="SLpWsWOZ-Yg8wPwdnWfF-1" source="wr5d51Yl4XAAvzai9b7U-4" target="wr5d51Yl4XAAvzai9b7U-3" edge="1">
          <mxGeometry width="50" height="50" relative="1" as="geometry">
            <mxPoint x="230" y="265" as="sourcePoint" />
            <mxPoint x="280" y="215" as="targetPoint" />
          </mxGeometry>
        </mxCell>
        <mxCell id="eJs-L2XnjaH23RuSow4--40" value="&lt;font style=&quot;font-size: 8px;&quot;&gt;&amp;lt;&amp;lt;includes&amp;gt;&amp;gt;&lt;/font&gt;" style="text;html=1;strokeColor=none;fillColor=none;align=center;verticalAlign=middle;whiteSpace=wrap;rounded=0;" parent="SLpWsWOZ-Yg8wPwdnWfF-1" vertex="1">
          <mxGeometry x="260" y="315" width="60" height="30" as="geometry" />
        </mxCell>
        <mxCell id="eJs-L2XnjaH23RuSow4--43" value="" style="endArrow=none;html=1;rounded=0;exitX=1;exitY=0.5;exitDx=0;exitDy=0;entryX=0;entryY=0;entryDx=0;entryDy=0;" parent="SLpWsWOZ-Yg8wPwdnWfF-1" source="YS-Tequ_tSHetrGVFUUf-19" target="eJs-L2XnjaH23RuSow4--20" edge="1">
          <mxGeometry width="50" height="50" relative="1" as="geometry">
            <mxPoint x="206" y="450" as="sourcePoint" />
            <mxPoint x="256" y="400" as="targetPoint" />
          </mxGeometry>
        </mxCell>
        <mxCell id="eJs-L2XnjaH23RuSow4--29" value="" style="endArrow=none;html=1;rounded=0;entryX=0;entryY=0.5;entryDx=0;entryDy=0;exitX=1;exitY=0.5;exitDx=0;exitDy=0;" parent="SLpWsWOZ-Yg8wPwdnWfF-1" source="YS-Tequ_tSHetrGVFUUf-0" target="wr5d51Yl4XAAvzai9b7U-4" edge="1">
          <mxGeometry width="50" height="50" relative="1" as="geometry">
            <mxPoint x="-130" y="410" as="sourcePoint" />
            <mxPoint x="74" y="630" as="targetPoint" />
          </mxGeometry>
        </mxCell>
        <mxCell id="YS-Tequ_tSHetrGVFUUf-8" value="Fiche Plan feu" style="ellipse;whiteSpace=wrap;html=1;" parent="SLpWsWOZ-Yg8wPwdnWfF-1" vertex="1">
          <mxGeometry x="30" y="40" width="100" height="40" as="geometry" />
        </mxCell>
        <mxCell id="bsUH4eUVU3nkwlBXj7Sr-24" value="" style="endArrow=block;endSize=16;endFill=0;html=1;rounded=0;exitX=0.5;exitY=1;exitDx=0;exitDy=0;entryX=0.5;entryY=0;entryDx=0;entryDy=0;" parent="SLpWsWOZ-Yg8wPwdnWfF-1" source="YS-Tequ_tSHetrGVFUUf-8" target="YS-Tequ_tSHetrGVFUUf-3" edge="1">
          <mxGeometry x="-0.0597" y="31" width="160" relative="1" as="geometry">
            <mxPoint x="211" y="262" as="sourcePoint" />
            <mxPoint x="180" y="190" as="targetPoint" />
            <mxPoint as="offset" />
          </mxGeometry>
        </mxCell>
        <mxCell id="YS-Tequ_tSHetrGVFUUf-6" value="Fiche Accueil" style="ellipse;whiteSpace=wrap;html=1;" parent="SLpWsWOZ-Yg8wPwdnWfF-1" vertex="1">
          <mxGeometry x="256" y="80" width="106" height="40" as="geometry" />
        </mxCell>
        <mxCell id="bsUH4eUVU3nkwlBXj7Sr-25" value="" style="endArrow=block;endSize=16;endFill=0;html=1;rounded=0;exitX=0;exitY=1;exitDx=0;exitDy=0;entryX=0.958;entryY=0.29;entryDx=0;entryDy=0;entryPerimeter=0;" parent="SLpWsWOZ-Yg8wPwdnWfF-1" source="YS-Tequ_tSHetrGVFUUf-6" target="YS-Tequ_tSHetrGVFUUf-3" edge="1">
          <mxGeometry x="-0.0597" y="31" width="160" relative="1" as="geometry">
            <mxPoint x="178" y="282" as="sourcePoint" />
            <mxPoint x="147" y="210" as="targetPoint" />
            <mxPoint as="offset" />
          </mxGeometry>
        </mxCell>
        <mxCell id="YS-Tequ_tSHetrGVFUUf-7" value="Fiche Rider" style="ellipse;whiteSpace=wrap;html=1;" parent="SLpWsWOZ-Yg8wPwdnWfF-1" vertex="1">
          <mxGeometry x="179" y="40" width="102" height="40" as="geometry" />
        </mxCell>
        <mxCell id="bsUH4eUVU3nkwlBXj7Sr-6" value="" style="endArrow=block;endSize=16;endFill=0;html=1;rounded=0;exitX=0;exitY=1;exitDx=0;exitDy=0;entryX=0.651;entryY=-0.01;entryDx=0;entryDy=0;entryPerimeter=0;" parent="SLpWsWOZ-Yg8wPwdnWfF-1" source="YS-Tequ_tSHetrGVFUUf-7" target="YS-Tequ_tSHetrGVFUUf-3" edge="1">
          <mxGeometry x="-0.0597" y="31" width="160" relative="1" as="geometry">
            <mxPoint x="270" y="340" as="sourcePoint" />
            <mxPoint x="128.5" y="190" as="targetPoint" />
            <mxPoint as="offset" />
          </mxGeometry>
        </mxCell>
        <mxCell id="SLpWsWOZ-Yg8wPwdnWfF-2" value="&lt;div&gt;Association&lt;/div&gt;1" style="shape=umlActor;verticalLabelPosition=bottom;verticalAlign=top;html=1;outlineConnect=0;" parent="WIyWlLk6GJQsqaUBKTNV-1" vertex="1">
          <mxGeometry x="110" y="270" width="30" height="60" as="geometry" />
        </mxCell>
        <mxCell id="SLpWsWOZ-Yg8wPwdnWfF-4" value="Association 2" style="shape=umlActor;verticalLabelPosition=bottom;verticalAlign=top;html=1;outlineConnect=0;" parent="WIyWlLk6GJQsqaUBKTNV-1" vertex="1">
          <mxGeometry x="120" y="635" width="30" height="60" as="geometry" />
        </mxCell>
        <mxCell id="wr5d51Yl4XAAvzai9b7U-2" value="Service de mail" style="shape=umlActor;verticalLabelPosition=bottom;verticalAlign=top;html=1;outlineConnect=0;" parent="WIyWlLk6GJQsqaUBKTNV-1" vertex="1">
          <mxGeometry x="791.5" y="220" width="30" height="60" as="geometry" />
        </mxCell>
        <mxCell id="wr5d51Yl4XAAvzai9b7U-5" value="&lt;div&gt;Service de connexion&lt;/div&gt;&lt;div&gt;&lt;br&gt;&lt;/div&gt;" style="shape=umlActor;verticalLabelPosition=bottom;verticalAlign=top;html=1;outlineConnect=0;" parent="WIyWlLk6GJQsqaUBKTNV-1" vertex="1">
          <mxGeometry x="780" y="450" width="30" height="60" as="geometry" />
        </mxCell>
        <mxCell id="eJs-L2XnjaH23RuSow4--0" value="Base de données" style="shape=umlActor;verticalLabelPosition=bottom;verticalAlign=top;html=1;outlineConnect=0;" parent="WIyWlLk6GJQsqaUBKTNV-1" vertex="1">
          <mxGeometry x="1020" y="450" width="30" height="60" as="geometry" />
        </mxCell>
        <mxCell id="eJs-L2XnjaH23RuSow4--23" value="" style="endArrow=none;html=1;rounded=0;entryX=0;entryY=0.5;entryDx=0;entryDy=0;" parent="WIyWlLk6GJQsqaUBKTNV-1" target="YS-Tequ_tSHetrGVFUUf-0" edge="1">
          <mxGeometry width="50" height="50" relative="1" as="geometry">
            <mxPoint x="140" y="310" as="sourcePoint" />
            <mxPoint x="450" y="490" as="targetPoint" />
          </mxGeometry>
        </mxCell>
        <mxCell id="eJs-L2XnjaH23RuSow4--24" value="" style="endArrow=none;html=1;rounded=0;entryX=0;entryY=0.5;entryDx=0;entryDy=0;" parent="WIyWlLk6GJQsqaUBKTNV-1" target="eJs-L2XnjaH23RuSow4--18" edge="1">
          <mxGeometry width="50" height="50" relative="1" as="geometry">
            <mxPoint x="140" y="310" as="sourcePoint" />
            <mxPoint x="310" y="240" as="targetPoint" />
          </mxGeometry>
        </mxCell>
        <mxCell id="eJs-L2XnjaH23RuSow4--25" value="" style="endArrow=none;html=1;rounded=0;entryX=0;entryY=0.5;entryDx=0;entryDy=0;" parent="WIyWlLk6GJQsqaUBKTNV-1" target="YS-Tequ_tSHetrGVFUUf-3" edge="1">
          <mxGeometry width="50" height="50" relative="1" as="geometry">
            <mxPoint x="140" y="310" as="sourcePoint" />
            <mxPoint x="320" y="250" as="targetPoint" />
          </mxGeometry>
        </mxCell>
        <mxCell id="eJs-L2XnjaH23RuSow4--26" value="" style="endArrow=none;html=1;rounded=0;entryX=0;entryY=0.5;entryDx=0;entryDy=0;" parent="WIyWlLk6GJQsqaUBKTNV-1" target="wr5d51Yl4XAAvzai9b7U-6" edge="1">
          <mxGeometry width="50" height="50" relative="1" as="geometry">
            <mxPoint x="140" y="310" as="sourcePoint" />
            <mxPoint x="330" y="210" as="targetPoint" />
          </mxGeometry>
        </mxCell>
        <mxCell id="eJs-L2XnjaH23RuSow4--28" value="" style="endArrow=none;html=1;rounded=0;entryX=0;entryY=0.5;entryDx=0;entryDy=0;" parent="WIyWlLk6GJQsqaUBKTNV-1" target="wr5d51Yl4XAAvzai9b7U-6" edge="1">
          <mxGeometry width="50" height="50" relative="1" as="geometry">
            <mxPoint x="150" y="670" as="sourcePoint" />
            <mxPoint x="340" y="300" as="targetPoint" />
          </mxGeometry>
        </mxCell>
        <mxCell id="eJs-L2XnjaH23RuSow4--30" value="" style="endArrow=none;html=1;rounded=0;entryX=0;entryY=0.5;entryDx=0;entryDy=0;" parent="WIyWlLk6GJQsqaUBKTNV-1" target="YS-Tequ_tSHetrGVFUUf-19" edge="1">
          <mxGeometry width="50" height="50" relative="1" as="geometry">
            <mxPoint x="150" y="670" as="sourcePoint" />
            <mxPoint x="354" y="570" as="targetPoint" />
          </mxGeometry>
        </mxCell>
        <mxCell id="eJs-L2XnjaH23RuSow4--32" value="" style="endArrow=none;html=1;rounded=0;exitX=1;exitY=0.5;exitDx=0;exitDy=0;" parent="WIyWlLk6GJQsqaUBKTNV-1" source="bsUH4eUVU3nkwlBXj7Sr-1" target="wr5d51Yl4XAAvzai9b7U-2" edge="1">
          <mxGeometry width="50" height="50" relative="1" as="geometry">
            <mxPoint x="411.5" y="370" as="sourcePoint" />
            <mxPoint x="461.5" y="320" as="targetPoint" />
          </mxGeometry>
        </mxCell>
        <mxCell id="eJs-L2XnjaH23RuSow4--37" value="" style="endArrow=none;html=1;rounded=0;exitX=1;exitY=0.5;exitDx=0;exitDy=0;" parent="WIyWlLk6GJQsqaUBKTNV-1" source="wr5d51Yl4XAAvzai9b7U-6" target="wr5d51Yl4XAAvzai9b7U-5" edge="1">
          <mxGeometry width="50" height="50" relative="1" as="geometry">
            <mxPoint x="400" y="570" as="sourcePoint" />
            <mxPoint x="450" y="520" as="targetPoint" />
          </mxGeometry>
        </mxCell>
        <mxCell id="eJs-L2XnjaH23RuSow4--41" value="" style="endArrow=none;html=1;rounded=0;exitX=1;exitY=0.5;exitDx=0;exitDy=0;" parent="WIyWlLk6GJQsqaUBKTNV-1" source="wr5d51Yl4XAAvzai9b7U-3" edge="1">
          <mxGeometry width="50" height="50" relative="1" as="geometry">
            <mxPoint x="470" y="530" as="sourcePoint" />
            <mxPoint x="1010" y="480" as="targetPoint" />
          </mxGeometry>
        </mxCell>
        <mxCell id="eJs-L2XnjaH23RuSow4--42" value="" style="endArrow=none;html=1;rounded=0;exitX=1;exitY=0.5;exitDx=0;exitDy=0;" parent="WIyWlLk6GJQsqaUBKTNV-1" source="YS-Tequ_tSHetrGVFUUf-19" edge="1">
          <mxGeometry width="50" height="50" relative="1" as="geometry">
            <mxPoint x="470" y="610" as="sourcePoint" />
            <mxPoint x="1010" y="480" as="targetPoint" />
          </mxGeometry>
        </mxCell>
        <mxCell id="eJs-L2XnjaH23RuSow4--55" value="" style="endArrow=none;html=1;rounded=0;exitX=1;exitY=0.5;exitDx=0;exitDy=0;" parent="WIyWlLk6GJQsqaUBKTNV-1" source="eJs-L2XnjaH23RuSow4--18" edge="1">
          <mxGeometry width="50" height="50" relative="1" as="geometry">
            <mxPoint x="700" y="440" as="sourcePoint" />
            <mxPoint x="1010" y="480" as="targetPoint" />
          </mxGeometry>
        </mxCell>
        <mxCell id="eJs-L2XnjaH23RuSow4--56" value="" style="endArrow=none;html=1;rounded=0;exitX=1;exitY=1;exitDx=0;exitDy=0;" parent="WIyWlLk6GJQsqaUBKTNV-1" source="YS-Tequ_tSHetrGVFUUf-3" edge="1">
          <mxGeometry width="50" height="50" relative="1" as="geometry">
            <mxPoint x="700" y="440" as="sourcePoint" />
            <mxPoint x="1010" y="480" as="targetPoint" />
          </mxGeometry>
        </mxCell>
      </root>
    </mxGraphModel>
  </diagram>
</mxfile>
